<svg viewBox="0 0 24 24" xmlns="http://www.w3.org/2000/svg"><g><path d="m24 4.5c0-1.10457-.895431-2-2-2h-20-.00000009c-1.10457.00000005-2 .895431-2 2v15-.0000003c-.00000017 1.10457.89543 2 2 2h3-.00000004c.552285.00000002 1-.447715 1-1v-.75-.00000002c-.00000006-.414214.335786-.75.75-.75h.00000013-.00000001c.411962.00538581.744614.338038.75.75v.75.00000015c.00000008.552285.447715 1 1 1h7-.00000004c.552285.00000002 1-.447715 1-1v-.75.00000011c-.00000006-.414214.335786-.75.75-.75h-.00000001c.411962.00538581.744614.338038.75.75v.75.00000015c.00000008.552285.447715 1 1 1h3-.00000009c1.10457.00000005 2-.89543 2-2zm-2 14.5c0 .276142-.223858.5-.5.5h-1.088-.00000001c-.231619-.00027582-.432728-.159591-.486-.385l.0000001.00000044c-.34996-1.47791-1.83174-2.3923-3.30966-2.04234-1.01227.239699-1.80264 1.03007-2.04234 2.04234l.00000002-.0000001c-.0532722.22541-.254381.384724-.486.385h-4.176-.00000001c-.231619-.00027582-.432728-.159591-.486-.385l.0000001.00000044c-.34996-1.47791-1.83174-2.3923-3.30966-2.04234-1.01227.239699-1.80264 1.03007-2.04234 2.04234l.00000002-.0000001c-.0532722.22541-.254381.384724-.486.385h-1.088-.00000002c-.276142-.00000001-.5-.223858-.5-.5 0-.00000013 0-.00000025 0-.00000038v-14 .00000008c-.00000004-.276142.223858-.5.5-.5h19-.00000001c.276142-.00000004.5.223858.5.5v.00000008z"/><path d="m14.25 11.5v.00000011c.00000006.414214.335787.75.75.75h4.783-.00000003c.414214.00000002.75-.335786.75-.75.00000002-.414214-.335786-.75-.75-.75h-4.783-.00000003c-.414214.00000002-.75.335786-.75.75z"/><path d="m14.25 14.5v.00000011c.00000006.414214.335787.75.75.75h2.609-.00000003c.414214.00000002.75-.335786.75-.75.00000002-.414214-.335786-.75-.75-.75h-2.609-.00000003c-.414214.00000002-.75.335786-.75.75z"/><path d="m15 9.25h5-.00000003c.414214.00000002.75-.335786.75-.75.00000002-.414214-.335786-.75-.75-.75h-5-.00000001c-.414214.00000002-.75.335786-.75.75.00000002.414214.335786.75.75.75z"/><path d="m9.24421 7.58579c.781049.781049.781049 2.04738 0 2.82843-.781049.781049-2.04738.781049-2.82843 0-.781049-.781049-.781049-2.04738 0-2.82843.781049-.781049 2.04738-.781049 2.82843 0"/><path d="m5.007 15h5.647.00000001c.276122.00336995.502695-.217739.506065-.493861.000794-.0650574-.0111169-.129644-.0350646-.190139l.00000004.00000011c-.523353-1.37164-1.82718-2.28807-3.295-2.316h.00000021c-1.46746.0283313-2.77078.944695-3.294 2.316l-.00000001.00000003c-.101641.256756.0241045.547294.280861.648936.0604947.0239478.125082.0358587.190139.0350647z"/></g></svg>